<?xml version="1.0" encoding="UTF-8" standalone="no"?>
<svg
   xmlns:dc="http://purl.org/dc/elements/1.1/"
   xmlns:cc="http://creativecommons.org/ns#"
   xmlns:rdf="http://www.w3.org/1999/02/22-rdf-syntax-ns#"
   xmlns:svg="http://www.w3.org/2000/svg"
   xmlns="http://www.w3.org/2000/svg"
   id="svg4541"
   version="1.1"
   viewBox="0 0 6.3492112 6.3500028"
   height="6.3500028mm"
   width="6.3492112mm">
  <defs
     id="defs4535" />
  <metadata
     id="metadata4538">
    <rdf:RDF>
      <cc:Work
         rdf:about="">
        <dc:format>image/svg+xml</dc:format>
        <dc:type
           rdf:resource="http://purl.org/dc/dcmitype/StillImage" />
        <dc:title></dc:title>
      </cc:Work>
    </rdf:RDF>
  </metadata>
  <g
     transform="translate(-58.33225,-171.09086)"
     id="layer1">
    <path
       id="path4533"
       d="m 61.21534,177.42712 c -0.58783,-0.056 -1.146857,-0.27367 -1.630153,-0.63459 -0.153077,-0.11432 -0.491084,-0.45232 -0.605401,-0.6054 -0.863382,-1.15612 -0.863382,-2.68722 0,-3.84334 0.114317,-0.15307 0.452324,-0.49108 0.605401,-0.6054 1.156119,-0.86338 2.687217,-0.86338 3.843336,0 0.153077,0.11432 0.491084,0.45233 0.605401,0.6054 0.863382,1.15612 0.863382,2.68722 0,3.84334 -0.114317,0.15308 -0.452324,0.49108 -0.605401,0.6054 -0.644785,0.48152 -1.436792,0.70862 -2.213183,0.63459 z m 1.250375,-1.18729 c 0.08654,-0.0349 0.190244,-0.13179 0.23029,-0.21511 0.01535,-0.0319 0.03336,-0.0933 0.04002,-0.13645 0.0076,-0.0489 0.0108,-0.68248 0.0086,-1.68483 l -0.0035,-1.60644 -0.02858,-0.0707 c -0.04006,-0.0991 -0.122611,-0.18641 -0.223169,-0.23591 l -0.08266,-0.0407 h -0.899874 -0.899877 l -0.08266,0.0407 c -0.100558,0.0495 -0.18311,0.13677 -0.223169,0.23591 l -0.02858,0.0707 -0.0035,1.60644 c -0.0022,1.00235 0.0011,1.63591 0.0086,1.68483 0.02962,0.19159 0.165836,0.3364 0.351771,0.37395 0.02886,0.006 0.437649,0.01 0.908415,0.009 l 0.855938,-0.002 z m -1.039492,-0.13227 c -0.0628,-0.0222 -0.136317,-0.1 -0.155709,-0.16471 -0.03292,-0.10986 0.02319,-0.2359 0.127499,-0.28639 0.154069,-0.0746 0.332492,0.0232 0.352639,0.19336 0.01381,0.11657 -0.06506,0.2305 -0.182952,0.26431 -0.05519,0.0158 -0.08162,0.0146 -0.141477,-0.007 z m -0.672163,-0.7066 c -0.08356,-0.0363 -0.07901,0.0506 -0.0754,-1.44014 l 0.0033,-1.34725 0.04051,-0.0362 0.04051,-0.0362 h 0.743903 0.743903 l 0.04051,0.0362 0.04051,0.0362 0.0033,1.34725 c 0.0036,1.49572 0.0086,1.40444 -0.07812,1.44067 -0.06158,0.0257 -1.443614,0.0252 -1.502866,-5.3e-4 z"
       style="fill:#000000;stroke-width:0.26458335" />
  </g>
</svg>
